<svg xmlns="http://www.w3.org/2000/svg" xmlns:xlink="http://www.w3.org/1999/xlink" width="500" zoomAndPan="magnify" viewBox="0 0 375 374.999991" height="500" preserveAspectRatio="xMidYMid meet" version="1.2"><defs><clipPath id="46df850206"><path d="M 75 64.050781 L 324.835938 64.050781 L 324.835938 187 L 75 187 Z M 75 64.050781 "/></clipPath><clipPath id="34214663a4"><path d="M 50.335938 143 L 287 143 L 287 310.800781 L 50.335938 310.800781 Z M 50.335938 143 "/></clipPath><clipPath id="5190fb31e6"><path d="M 172.011719 149.726562 L 202.988281 149.726562 L 202.988281 180.707031 L 172.011719 180.707031 Z M 172.011719 149.726562 "/></clipPath><clipPath id="b5b8e4e420"><path d="M 187.5 149.726562 C 178.945312 149.726562 172.011719 156.664062 172.011719 165.21875 C 172.011719 173.773438 178.945312 180.707031 187.5 180.707031 C 196.054688 180.707031 202.988281 173.773438 202.988281 165.21875 C 202.988281 156.664062 196.054688 149.726562 187.5 149.726562 Z M 187.5 149.726562 "/></clipPath><clipPath id="8fa0e44bd0"><path d="M 179 192 L 194 192 L 194 208 L 179 208 Z M 179 192 "/></clipPath><clipPath id="0056589e2a"><path d="M 183.140625 192.703125 L 193.074219 195.554688 L 189.640625 207.511719 L 179.707031 204.660156 Z M 183.140625 192.703125 "/></clipPath><clipPath id="6790fd25c5"><path d="M 182 193 L 195 193 L 195 208 L 182 208 Z M 182 193 "/></clipPath><clipPath id="520f3776b2"><path d="M 182.519531 195.234375 L 192.453125 193.480469 L 194.617188 205.726562 L 184.683594 207.484375 Z M 182.519531 195.234375 "/></clipPath><clipPath id="de411fb7cd"><path d="M 184.972656 178.605469 L 190.089844 178.605469 L 190.089844 190.1875 L 184.972656 190.1875 Z M 184.972656 178.605469 "/></clipPath><clipPath id="c8152a1a93"><path d="M 183.988281 188.523438 L 191.691406 188.523438 L 191.691406 200.105469 L 183.988281 200.105469 Z M 183.988281 188.523438 "/></clipPath></defs><g id="12ee577dd3"><g clip-rule="nonzero" clip-path="url(#46df850206)"><path style=" stroke:none;fill-rule:nonzero;fill:#0097b2;fill-opacity:1;" d="M 156.492188 161.355469 C 157.835938 150.996094 164.332031 142.21875 173.285156 137.65625 L 128.167969 105.996094 C 152.101562 95.167969 174.222656 93.179688 187.390625 93.179688 C 204.769531 93.179688 237.777344 96.691406 269.84375 119.222656 C 269.785156 125.074219 269.726562 130.867188 269.550781 136.484375 C 257.320312 129.34375 244.273438 123.84375 230.636719 120.800781 L 324.503906 186.636719 C 319.0625 177.742188 312.507812 170.484375 305.601562 163.695312 C 303.027344 161.296875 300.394531 158.957031 297.699219 156.617188 C 298.695312 141.984375 298.871094 127.0625 298.871094 111.90625 L 298.871094 104.824219 L 293.253906 100.4375 C 252.640625 68.894531 209.511719 64.152344 187.390625 64.152344 C 168.839844 64.152344 135.539062 67.488281 101.246094 87.210938 C 94.636719 91.015625 88.023438 95.402344 81.46875 100.496094 L 75.851562 104.882812 L 104.992188 125.308594 Z M 156.492188 161.355469 "/></g><g clip-rule="nonzero" clip-path="url(#34214663a4)"><path style=" stroke:none;fill-rule:nonzero;fill:#0097b2;fill-opacity:1;" d="M 218.347656 169.257812 C 217.117188 179.671875 210.679688 188.449219 201.785156 193.132812 L 250.066406 227.015625 C 237.953125 248.257812 218.523438 265.757812 187.332031 279.332031 C 143.792969 260.371094 123.132812 233.628906 113.363281 199.921875 C 126.820312 207.820312 141.101562 214.199219 156.023438 218.121094 L 50.335938 143.976562 C 56.714844 153.632812 64.261719 161.589844 72.164062 169.082031 C 74.328125 171.070312 76.550781 173 78.777344 174.875 C 80.882812 191.726562 84.511719 207.996094 90.773438 223.503906 C 106.339844 262.1875 136.183594 289.984375 181.949219 308.476562 L 187.390625 310.699219 L 192.832031 308.476562 C 230.226562 293.378906 256.972656 272.078125 274 243.695312 C 277.804688 237.316406 281.140625 230.585938 284.007812 223.503906 C 284.886719 221.339844 285.703125 219.175781 286.464844 216.949219 L 261.476562 199.453125 Z M 218.347656 169.257812 "/></g><path style=" stroke:none;fill-rule:nonzero;fill:#666666;fill-opacity:1;" d="M 208.457031 165.453125 C 208.457031 153.808594 199.035156 144.386719 187.390625 144.386719 C 175.746094 144.386719 166.324219 153.808594 166.324219 165.453125 C 166.324219 174.464844 172 182.1875 179.957031 185.171875 L 173.226562 208.464844 C 176.972656 211.390625 183.46875 212.621094 187.390625 212.621094 C 191.3125 212.621094 197.808594 211.390625 201.550781 208.464844 L 194.878906 185.171875 C 202.78125 182.1875 208.457031 174.523438 208.457031 165.453125 Z M 208.457031 165.453125 "/><g clip-rule="nonzero" clip-path="url(#5190fb31e6)"><g clip-rule="nonzero" clip-path="url(#b5b8e4e420)"><path style=" stroke:none;fill-rule:nonzero;fill:#0097b2;fill-opacity:1;" d="M 172.011719 149.726562 L 202.988281 149.726562 L 202.988281 180.707031 L 172.011719 180.707031 Z M 172.011719 149.726562 "/></g></g><path style="fill:none;stroke-width:3;stroke-linecap:butt;stroke-linejoin:miter;stroke:#0097b2;stroke-opacity:1;stroke-miterlimit:4;" d="M 0.00138663 1.501686 L 35.470643 1.498808 " transform="matrix(0.184527,-0.716715,0.716715,0.184527,178.618776,206.524674)"/><path style="fill:none;stroke-width:3;stroke-linecap:butt;stroke-linejoin:miter;stroke:#0097b2;stroke-opacity:1;stroke-miterlimit:4;" d="M -0.000797315 1.497484 L 35.692558 1.499765 " transform="matrix(-0.184342,-0.726992,0.726992,-0.184342,194.653381,206.728594)"/><path style="fill:none;stroke-width:3;stroke-linecap:butt;stroke-linejoin:miter;stroke:#0097b2;stroke-opacity:1;stroke-miterlimit:4;" d="M 0.569383 1.385621 C 8.470857 4.620483 15.912033 4.621163 22.908231 1.387911 " transform="matrix(0.764852,-0.0116134,0.0107167,0.705801,179.04575,204.462234)"/><g clip-rule="nonzero" clip-path="url(#8fa0e44bd0)"><g clip-rule="nonzero" clip-path="url(#0056589e2a)"><path style=" stroke:none;fill-rule:nonzero;fill:#0097b2;fill-opacity:1;" d="M 183.140625 192.703125 L 193.074219 195.554688 L 189.640625 207.503906 L 179.710938 204.652344 Z M 183.140625 192.703125 "/></g></g><g clip-rule="nonzero" clip-path="url(#6790fd25c5)"><g clip-rule="nonzero" clip-path="url(#520f3776b2)"><path style=" stroke:none;fill-rule:nonzero;fill:#0097b2;fill-opacity:1;" d="M 182.519531 195.234375 L 192.453125 193.480469 L 194.621094 205.742188 L 184.6875 207.496094 Z M 182.519531 195.234375 "/></g></g><g clip-rule="nonzero" clip-path="url(#de411fb7cd)"><path style=" stroke:none;fill-rule:nonzero;fill:#0097b2;fill-opacity:1;" d="M 184.972656 178.605469 L 190.089844 178.605469 L 190.089844 190.183594 L 184.972656 190.183594 Z M 184.972656 178.605469 "/></g><g clip-rule="nonzero" clip-path="url(#c8152a1a93)"><path style=" stroke:none;fill-rule:nonzero;fill:#0097b2;fill-opacity:1;" d="M 183.988281 188.523438 L 191.691406 188.523438 L 191.691406 200.117188 L 183.988281 200.117188 Z M 183.988281 188.523438 "/></g></g></svg>